<svg width="100" height="100" viewBox="0 0 100 100" fill="none" xmlns="http://www.w3.org/2000/svg">
<g clip-path="url(#clip0_1_109)">
<rect width="100" height="100" fill="#141414"/>
<rect x="14.5" y="15.5" width="71" height="92.12" rx="7.5" fill="#070707" stroke="#404040"/>
<path d="M38 15H62V16C62 17.6569 60.6569 19 59 19H41C39.3431 19 38 17.6569 38 16V15Z" fill="#1F1F1F"/>
<path d="M50.3542 61.392C54.0662 61.392 55.9222 59.808 55.9222 56.64C55.9222 55.296 55.2182 54.16 53.8102 53.232C52.7862 52.528 51.3782 51.776 49.5862 50.976C47.8262 50.144 46.4982 49.488 45.6022 49.008C44.7382 48.528 43.7302 47.856 42.5782 46.992C40.3702 45.296 39.2662 43.184 39.2662 40.656C39.2662 38.128 40.2422 36.032 42.1942 34.368C44.1782 32.672 46.8502 31.824 50.2102 31.824C53.5702 31.824 57.1542 32.896 60.9622 35.04C60.9622 37.344 60.7222 39.84 60.2422 42.528C59.2182 42.848 57.6982 43.008 55.6822 43.008L54.2902 37.296C53.1062 36.944 51.8102 36.768 50.4022 36.768C48.9942 36.768 47.9062 37.072 47.1382 37.68C46.3702 38.288 45.9862 39.2 45.9862 40.416C45.9862 41.6 46.5782 42.672 47.7622 43.632C48.9782 44.56 50.4342 45.424 52.1302 46.224C53.8262 46.992 54.9942 47.536 55.6342 47.856C56.2742 48.176 57.0902 48.656 58.0822 49.296C59.0742 49.936 59.8262 50.544 60.3382 51.12C61.6502 52.656 62.3062 54.368 62.3062 56.256C62.3062 59.584 61.2022 62.144 58.9942 63.936C56.7862 65.728 53.9062 66.624 50.3542 66.624C48.4662 66.624 46.3862 66.304 44.1142 65.664C41.8742 64.992 39.9702 64.144 38.4022 63.12C38.4662 61.168 38.7222 58.528 39.1702 55.2C40.4502 54.944 41.9862 54.816 43.7782 54.816L44.7862 60.576C46.5462 61.12 48.4022 61.392 50.3542 61.392Z" fill="white"/>
<path d="M36.2422 70.8H63.7462V73.2H36.2422V70.8Z" fill="white"/>
</g>
<defs>
<clipPath id="clip0_1_109">
<rect width="100" height="100" fill="white"/>
</clipPath>
</defs>
</svg>
